<svg width="96" height="96" xmlns="http://www.w3.org/2000/svg" xmlns:xlink="http://www.w3.org/1999/xlink" overflow="hidden"><defs><clipPath id="clip0"><rect x="359" y="373" width="96" height="96"/></clipPath></defs><g clip-path="url(#clip0)" transform="translate(-359 -373)"><path d="M406.979 383C386.004 383 369 400.004 369 420.979 369 441.954 386.004 458.958 406.979 458.958 427.954 458.958 444.958 441.954 444.958 420.979 444.958 420.978 444.958 420.977 444.958 420.976 444.965 400.01 427.974 383.007 407.008 383 406.998 383 406.989 383 406.979 383ZM416.179 422.793C410.646 428.316 405.079 433.889 399.479 439.51 394.72 434.729 389.95 429.959 385.169 425.2L389.95 420.419 399.479 429.948C404.105 425.255 408.705 420.596 413.279 415.969 417.85 411.343 420.379 408.86 425.12 404.278 425.253 404.145 425.396 404.013 425.551 403.878 425.701 403.751 425.836 403.606 425.951 403.446L430.799 408.227C425.168 413.827 421.712 417.267 416.178 422.79Z"/></g></svg>