<svg width="96" height="96" xmlns="http://www.w3.org/2000/svg" xmlns:xlink="http://www.w3.org/1999/xlink" overflow="hidden"><defs><clipPath id="clip0"><rect x="1037" y="595" width="96" height="96"/></clipPath></defs><g clip-path="url(#clip0)" transform="translate(-1037 -595)"><path d="M1101 625C1101 633.837 1093.84 641 1085 641 1076.16 641 1069 633.837 1069 625 1069 616.163 1076.16 609 1085 609 1093.84 609 1101 616.163 1101 625Z"/><path d="M1117 677 1117 661C1117 658.6 1115.8 656.2 1113.8 654.6 1109.4 651 1103.8 648.6 1098.2 647 1094.2 645.8 1089.8 645 1085 645 1080.6 645 1076.2 645.8 1071.8 647 1066.2 648.6 1060.6 651.4 1056.2 654.6 1054.2 656.2 1053 658.6 1053 661L1053 677 1117 677Z"/></g></svg>