<svg width="96" height="96" xmlns="http://www.w3.org/2000/svg" xmlns:xlink="http://www.w3.org/1999/xlink" overflow="hidden"><defs><clipPath id="clip0"><rect x="1147" y="539" width="96" height="96"/></clipPath></defs><g clip-path="url(#clip0)" transform="translate(-1147 -539)"><path d="M1174 605C1174 608.866 1170.87 612 1167 612 1163.13 612 1160 608.866 1160 605 1160 601.134 1163.13 598 1167 598 1170.87 598 1174 601.134 1174 605Z"/><path d="M1232 605C1232 608.866 1228.87 612 1225 612 1221.13 612 1218 608.866 1218 605 1218 601.134 1221.13 598 1225 598 1228.87 598 1232 601.134 1232 605Z"/><path d="M1151 563 1207 563 1207 587 1151 587Z"/><path d="M1215 573 1221 573C1222.8 573 1224.4 574.2 1224.8 575.9L1226.8 582.8C1226.8 582.9 1226.9 582.9 1226.9 583L1215 583 1215 573ZM1221 569 1211 569 1211 583 1211 589 1211 605 1215 605C1215 599.5 1219.5 595 1225 595 1230.5 595 1235 599.5 1235 605 1237.2 605 1239 603.2 1239 601L1239 591C1239 589.7 1238.4 588.6 1237.4 587.8L1232.1 583.8C1231.4 583.3 1230.9 582.5 1230.7 581.7L1228.7 574.8C1227.7 571.4 1224.5 569 1221 569Z"/><path d="M1207 605 1177 605C1177 599.5 1172.5 595 1167 595 1161.5 595 1157 599.5 1157 605L1151 605 1151 591 1207 591 1207 605Z"/></g></svg>