<svg width="96" height="96" xmlns="http://www.w3.org/2000/svg" xmlns:xlink="http://www.w3.org/1999/xlink" overflow="hidden"><defs><clipPath id="clip0"><rect x="740" y="593" width="96" height="96"/></clipPath></defs><g clip-path="url(#clip0)" transform="translate(-740 -593)"><path d="M814 668 802 668 802 659 814 659 814 668ZM794 668 782 668 782 659 794 659 794 668ZM774 668 762 668 762 659 774 659 774 668ZM795 648 795 634 768 648 765 607 757 607 754 648 754 675 822 675 822 648 822 634 795 648Z"/></g></svg>