<svg width="96" height="96" xmlns="http://www.w3.org/2000/svg" xmlns:xlink="http://www.w3.org/1999/xlink" overflow="hidden"><defs><clipPath id="clip0"><rect x="1032" y="596" width="96" height="96"/></clipPath></defs><g clip-path="url(#clip0)" transform="translate(-1032 -596)"><path d="M1071.3 675.5C1068.5 675.5 1066.3 673.3 1066.3 670.5 1066.3 667.7 1068.5 665.5 1071.3 665.5 1074.1 665.5 1076.3 667.7 1076.3 670.5 1076.3 673.3 1074 675.5 1071.3 675.5ZM1071.3 656C1063.3 656 1056.8 662.5 1056.8 670.5 1056.8 678.5 1063.3 685 1071.3 685 1079.3 685 1085.8 678.5 1085.8 670.5 1085.8 662.5 1079.3 656 1071.3 656Z"/><path d="M1089.53 667.211 1079.57 643.19 1110.06 630.561 1120.01 654.582Z"/><path d="M1072.5 652.1C1075.1 652.3 1077.6 653 1079.8 654.2L1061.6 609.4C1061.6 609.3 1061.5 609.2 1061.5 609.1L1055.9 611.4C1055.9 611.5 1056 611.6 1056 611.7L1058.3 617.4 1050.1 620.8C1048.6 621.4 1047.8 623.2 1048.5 624.7 1049 625.9 1050.1 626.6 1051.3 626.6 1051.7 626.6 1052.1 626.5 1052.4 626.4L1060.6 623 1072.5 652.1Z"/><path d="M1111.3 662.9C1110.9 662.9 1110.5 663 1110.1 663.1L1089.8 671.5C1089.6 674.1 1089 676.6 1087.8 678.8L1087.8 678.9 1112.2 668.7C1113.4 668.3 1114.3 667.2 1114.3 665.9 1114.3 664.3 1112.9 662.9 1111.3 662.9Z"/></g></svg>