<svg width="96" height="96" xmlns="http://www.w3.org/2000/svg" xmlns:xlink="http://www.w3.org/1999/xlink" overflow="hidden"><defs><clipPath id="clip0"><rect x="740" y="482" width="96" height="96"/></clipPath></defs><g clip-path="url(#clip0)" transform="translate(-740 -482)"><path d="M831.288 519.022C831.226 518.125 830.574 517.38 829.693 517.2L819.119 515.041C818.461 514.905 817.779 515.11 817.306 515.586L815.17 517.721 800.97 503.521C800.799 506.431 799.228 509.077 796.756 510.621L809.513 523.378 807.45 525.442C806.981 525.911 806.775 526.581 806.9 527.232L808.945 537.916C809.116 538.809 809.869 539.474 810.776 539.535L821.382 540.242C821.427 540.242 821.472 540.247 821.517 540.247 822.622 540.283 823.546 539.417 823.583 538.312 823.619 537.208 822.753 536.283 821.648 536.247L812.582 535.647 811.027 527.522 819.374 519.175 827.4 520.81 828.006 529.894C828.079 530.997 829.033 531.831 830.136 531.758 831.239 531.685 832.073 530.731 832 529.628Z"/><path d="M782.941 532.941C782.942 529.727 782.023 526.579 780.292 523.87L773.236 532.3C769.585 536.677 763.077 537.265 758.701 533.614 754.324 529.962 753.736 523.455 757.387 519.078 757.784 518.602 758.224 518.162 758.7 517.765L758.96 517.547C752.931 520.298 749.062 526.314 749.06 532.941L749.06 552 782.941 552Z"/><path d="M783 503C783 502.391 783.062 501.784 783.184 501.188L760.623 520.065C757.524 522.661 757.117 527.278 759.713 530.377 762.31 533.476 766.927 533.883 770.025 531.287 770.355 531.011 770.659 530.706 770.935 530.377L787.388 510.714C784.671 509.093 783.005 506.164 783 503ZM767.923 525.906C767.142 526.687 765.876 526.687 765.095 525.906 764.313 525.125 764.313 523.859 765.094 523.078 765.875 522.297 767.141 522.297 767.923 523.078 767.923 523.078 767.923 523.078 767.923 523.078 768.704 523.859 768.704 525.125 767.923 525.906Z"/><path d="M783 556 749 556C746.791 556 745 557.791 745 560L745 564 787 564 787 560C787 557.791 785.209 556 783 556Z"/><path d="M792 497C788.686 497 786 499.686 786 503 786 506.314 788.686 509 792 509 795.314 509 798 506.314 798 503 798 499.686 795.314 497 792 497ZM792 504.5C791.172 504.5 790.5 503.828 790.5 503 790.5 502.172 791.172 501.5 792 501.5 792.828 501.5 793.5 502.172 793.5 503 793.5 503.828 792.828 504.5 792 504.5Z"/></g></svg>