<svg width="96" height="96" xmlns="http://www.w3.org/2000/svg" xmlns:xlink="http://www.w3.org/1999/xlink" overflow="hidden"><defs><clipPath id="clip0"><rect x="546" y="545" width="96" height="96"/></clipPath></defs><g clip-path="url(#clip0)" transform="translate(-546 -545)"><path d="M620.613 567.357 611.973 567.357 603.586 558.97 594 563.762 582.018 561.366 577.225 567.357 567.387 567.357 559 576.996 629 577 620.613 567.357Z"/><path d="M639 619 612.717 619C614.65 616.657 614.318 613.19 611.975 611.257 609.632 609.324 606.165 609.657 604.232 612 602.555 614.032 602.555 616.968 604.232 619L582.743 619C584.676 616.657 584.343 613.19 582 611.257 579.656 609.325 576.19 609.657 574.257 612.001 572.581 614.033 572.581 616.968 574.257 619L548 619 548 623 553 623 553 626 562 626 562 623 571 623 571 626 580 626 580 623 589 623 589 626 598 626 598 623 607 623 607 626 616 626 616 623 625 623 625 626 634 626 634 623 639 623Z"/><path d="M568.263 615 570.025 615C570.294 610.319 574.307 606.743 578.987 607.012 583.292 607.26 586.727 610.695 586.975 615L600 615C600.274 610.32 604.29 606.747 608.971 607.021 613.268 607.273 616.698 610.702 616.949 615L618.712 615 630.08 588 633 588 633 581 554 581 554 588 556.9 588Z"/></g></svg>