<svg width="96" height="96" xmlns="http://www.w3.org/2000/svg" xmlns:xlink="http://www.w3.org/1999/xlink" overflow="hidden"><defs><clipPath id="clip0"><rect x="363" y="543" width="96" height="96"/></clipPath></defs><g clip-path="url(#clip0)" transform="translate(-363 -543)"><path d="M407.9 615.4C407.4 615.4 406.8 615.3 406.4 614.9 405.6 614.2 405.5 612.9 406.2 612.1L410.1 607.6C410.8 606.8 412.1 606.7 412.9 607.4 413.7 608.1 413.8 609.4 413.1 610.2L409.2 614.7C408.9 615.1 408.4 615.3 407.9 615.4Z"/><path d="M401.8 613.1C401.1 613.2 400.5 613 399.9 612.5 398.9 611.6 398.8 610 399.7 609L404.3 603.7C405.2 602.7 406.8 602.6 407.8 603.5 408.8 604.4 408.9 606 408 607L403.4 612.3C403 612.8 402.4 613.1 401.8 613.1Z"/><path d="M395.5 609.4C394.7 609.5 393.9 609.2 393.3 608.7 392.1 607.6 391.9 605.7 393 604.5L397.6 599.2C398.7 598 400.6 597.8 401.8 598.9 403 600 403.2 601.9 402.1 603.1L397.5 608.4C397 609 396.2 609.4 395.5 609.4Z"/><path d="M388.2 605.7C387.4 605.8 386.6 605.5 386 605 384.8 603.9 384.6 602 385.7 600.8L391 594.8C392.1 593.6 394 593.4 395.2 594.5 396.4 595.6 396.6 597.5 395.5 598.7L390.2 604.7C389.6 605.3 388.9 605.6 388.2 605.7Z"/><path d="M367.6 583.7 375.3 588.4C376.2 589 377.5 588.7 378 587.7L387.3 572.3C387.9 571.4 387.6 570.1 386.6 569.6L379 564.9 367.6 583.7Z"/><path d="M432.4 596.8 416.3 583 415.2 582 408.3 589.9C407.3 591.1 405.9 591.8 404.3 591.9 404.1 591.9 403.9 591.9 403.8 591.9 402.3 591.9 400.9 591.4 399.9 590.4 397.4 588.2 397.2 584.4 399.3 581.9L405.2 575.1C400.6 574.5 394.7 576.9 388.6 573.9L379.9 588.3 386.7 596.2 389.3 593.2C390.2 592.1 391.6 591.5 393.1 591.5L393.1 591.5C394.3 591.5 395.5 591.9 396.4 592.7 397.5 593.6 398 594.9 398.1 596.3 398.6 596.1 399.2 596 399.8 596 401 596 402.2 596.4 403.1 597.2 404.2 598.2 404.8 599.5 404.8 600.9 405.2 600.8 405.7 600.7 406.1 600.7L406.1 600.7C407.2 600.7 408.2 601.1 409.1 601.8 410 602.6 410.5 603.7 410.6 604.9 410.9 604.8 411.3 604.7 411.7 604.7L411.7 604.7C412.7 604.7 413.6 605 414.3 605.7 415.1 606.4 415.6 607.4 415.7 608.4 415.8 609.5 415.4 610.5 414.7 611.3L411.3 615.2 412.7 616.3C413.4 616.7 414.2 617 415.1 616.9 417.3 616.7 418.9 614.8 418.7 612.6 418.7 612.6 418.7 612.5 418.7 612.5 419 612.6 419.4 612.6 419.7 612.6 421.9 612.4 423.5 610.5 423.3 608.3 423.3 608.3 423.3 608.2 423.3 608.2 423.6 608.3 424 608.3 424.3 608.3 426.5 608.1 428.1 606.2 427.9 604 427.9 603.8 427.8 603.6 427.8 603.4 428.4 603.7 429.1 603.9 429.9 603.8 432.1 603.6 433.7 601.7 433.5 599.5 433.6 598.4 433.1 597.5 432.4 596.8Z"/><path d="M454.4 583.7 446.7 588.4C445.8 589 444.5 588.7 444 587.7L434.7 572.3C434.1 571.4 434.4 570.1 435.4 569.6L443.1 564.9 454.4 583.7Z"/><path d="M433.5 574.3C425.2 577.3 419.2 574.4 412.5 573.1 412.4 573.1 412 573 412 573 410.8 572.9 409.5 573.3 408.6 574.3L400.7 583.3C399.2 585 399.4 587.5 401.1 588.9 402 589.6 403 590 404.1 589.9 405.1 589.8 406.1 589.4 406.8 588.5 406.8 588.5 415 579.1 415 579.1L433.7 595.2 433.7 595.2 433.7 595.2C434.2 595.7 434.4 595.9 434.8 596.5L442 588.2 433.5 574.3Z"/></g></svg>