<svg width="96" height="96" xmlns="http://www.w3.org/2000/svg" xmlns:xlink="http://www.w3.org/1999/xlink" overflow="hidden"><defs><clipPath id="clip0"><rect x="46" y="533" width="96" height="96"/></clipPath></defs><g clip-path="url(#clip0)" transform="translate(-46 -533)"><path d="M77 549 111 549 111 563 77 563Z"/><path d="M70 608C70 611.314 67.3137 614 64 614 60.6863 614 58 611.314 58 608 58 604.686 60.6863 602 64 602 67.3137 602 70 604.686 70 608Z"/><path d="M100 608C100 611.314 97.3137 614 94 614 90.6863 614 88 611.314 88 608 88 604.686 90.6863 602 94 602 97.3137 602 100 604.686 100 608Z"/><path d="M130 608C130 611.314 127.314 614 124 614 120.686 614 118 611.314 118 608 118 604.686 120.686 602 124 602 127.314 602 130 604.686 130 608Z"/><path d="M100.5 581 96 576.5 96 567 92 567 92 576.5 87.5 581 62 581 62 599 66 599 66 585 87.5 585 92 589.5 92 599 96 599 96 589.5 100.5 585 122 585 122 599 126 599 126 581ZM94 588 89 583 94 578 99 583Z"/></g></svg>