<svg width="96" height="96" xmlns="http://www.w3.org/2000/svg" xmlns:xlink="http://www.w3.org/1999/xlink" overflow="hidden"><defs><clipPath id="clip0"><rect x="546" y="482" width="96" height="96"/></clipPath></defs><g clip-path="url(#clip0)" transform="translate(-546 -482)"><path d="M566 496 560 496 560 564 628 564 628 558 566 558 566 496Z"/><path d="M617 546 626 546 626 552 617 552Z"/><path d="M609 536 619 536 619 542 609 542Z"/><path d="M594 526 614 526 614 532 594 532Z"/><path d="M583 516 617 516 617 522 583 522Z"/><path d="M572 506 592 506 592 512 572 512Z"/></g></svg>