<svg width="96" height="96" xmlns="http://www.w3.org/2000/svg" xmlns:xlink="http://www.w3.org/1999/xlink" overflow="hidden"><defs><clipPath id="clip0"><rect x="46" y="595" width="96" height="96"/></clipPath></defs><g clip-path="url(#clip0)" transform="translate(-46 -595)"><path d="M116 661C112.354 661.003 109.171 663.47 108.26 667L96 667 96 650.74C100.275 649.623 102.834 645.252 101.717 640.977 100.985 638.178 98.7993 635.992 96 635.26L96 615 79.74 615C78.6354 610.722 74.272 608.149 69.994 609.254 65.7161 610.359 63.1435 614.722 64.2481 619 65.3526 623.278 69.7161 625.851 73.994 624.746 76.8119 624.018 79.0124 621.818 79.74 619L92 619 92 635.26C87.7253 636.377 85.1657 640.748 86.283 645.023 87.0146 647.822 89.2007 650.008 92 650.74L92 671 108.26 671C109.365 675.278 113.728 677.851 118.006 676.746 122.284 675.641 124.856 671.278 123.752 667 122.839 663.466 119.65 660.997 116 661Z"/></g></svg>