<svg width="96" height="96" xmlns="http://www.w3.org/2000/svg" xmlns:xlink="http://www.w3.org/1999/xlink" overflow="hidden"><defs><clipPath id="clip0"><rect x="184" y="487" width="96" height="96"/></clipPath></defs><g clip-path="url(#clip0)" transform="translate(-184 -487)"><path d="M273.83 543.61 255.39 540.15 255.39 540.25 254.06 541C247.629 544.346 240.965 547.224 234.12 549.61 233.12 549.93 231.9 550.3 230.5 550.7 233.75 551.87 253.21 558.7 262.14 556.7 268.14 555.36 272.76 550.03 275.14 546.78 275.798 545.893 275.613 544.64 274.726 543.982 274.462 543.786 274.155 543.659 273.83 543.61Z"/><path d="M207 554.5C216.38 552.29 227.83 549.5 233.18 547.76L233.18 547.76 233.98 547.5 235.11 547.11 235.11 547.11C236.31 546.68 237.51 546.23 238.69 545.77L239.46 545.46 240.25 545.14 240.52 545.03 240.52 545.03C247.4 542.2 253.1 539.19 253.1 539.19 249.28 522.07 234.6 511.61 216.1 514.74 215.542 512.97 213.699 511.943 211.9 512.4L210.2 512.84C208.376 513.321 207.262 515.161 207.68 517 192.93 522.75 187.71 535.3 191 550L192.31 555.85C192.549 556.926 193.613 557.606 194.69 557.37 196.86 556.88 200.69 556.01 205.11 554.97L205.11 554.97 207.11 554.51ZM215.35 515.12C220.914 517.992 225.511 522.436 228.57 527.9 231.282 532.644 233.235 537.783 234.36 543.13L232.72 543.7 232.45 543.79C231.381 538.568 229.491 533.549 226.85 528.92 223.06 522.52 218.09 518.15 212.24 515.92ZM204.26 551C202.5 541.31 202.83 532.07 205.26 524.35 206.09 521.741 207.214 519.235 208.61 516.88L211.45 516.14C209.596 518.864 208.16 521.851 207.19 525 204.84 532.38 204.52 541.25 206.19 550.58Z"/></g></svg>