<svg width="96" height="96" xmlns="http://www.w3.org/2000/svg" xmlns:xlink="http://www.w3.org/1999/xlink" overflow="hidden"><defs><clipPath id="clip0"><rect x="886" y="481" width="96" height="96"/></clipPath></defs><g clip-path="url(#clip0)" transform="translate(-886 -481)"><path d="M897 544 897 567 920 567 920 544ZM904 551 900 551 900 547 904 547Z"/><path d="M923 544 923 567 946 567 946 544ZM930 551 926 551 926 547 930 547Z"/><path d="M910 518 910 541 933 541 933 518ZM917 525 913 525 913 521 917 521Z"/><path d="M936 518 936 541 959 541 959 518ZM943 525 939 525 939 521 943 521Z"/><path d="M923 492 923 515 946 515 946 492ZM930 499 926 499 926 495 930 495Z"/><path d="M949 544 949 567 971 567 971 544ZM956 551 952 551 952 547 956 547Z"/></g></svg>