<svg width="96" height="96" xmlns="http://www.w3.org/2000/svg" xmlns:xlink="http://www.w3.org/1999/xlink" overflow="hidden"><defs><clipPath id="clip0"><rect x="356" y="595" width="96" height="96"/></clipPath></defs><g clip-path="url(#clip0)" transform="translate(-356 -595)"><path d="M411 621.9C411 625.8 407.9 628.9 404 628.9 400.1 628.9 397 625.8 397 621.9 397 618 400.1 614.9 404 614.9 407.9 614.9 411 618.1 411 621.9"/><path d="M439 625.9C439 629.8 435.9 632.9 432 632.9 428.1 632.9 425 629.8 425 625.9 425 622 428.1 618.9 432 618.9 435.9 618.9 439 622 439 625.9"/><path d="M383 625.9C383 629.8 379.9 632.9 376 632.9 372.1 632.9 369 629.8 369 625.9 369 622 372.1 618.9 376 618.9 379.9 618.9 383 622 383 625.9"/><path d="M364.6 671.1C364.6 656.5 382.2 644.7 404 644.7 425.7 644.7 443.4 656.5 443.4 671.1L364.6 671.1Z"/><path d="M373.6 648.4C377.8 645.6 382.7 643.4 388 642L388 640.9C388 639.8 387.5 638.7 386.8 638 386.5 637.7 385.8 637.3 384.9 636.9 379.4 634.3 372.9 634.3 367.3 636.8 366.3 637.2 365.5 637.7 365.1 638 364.5 638.7 364 639.8 364 640.9L364 657.9C366.3 654.4 369.5 651.1 373.6 648.4"/><path d="M416 641 416 636.9C416 635.8 415.5 634.7 414.8 634 414.5 633.7 413.8 633.3 412.9 632.9 407.4 630.3 400.9 630.3 395.3 632.8 394.3 633.2 393.5 633.7 393.1 634 392.3 634.7 391.9 635.8 391.9 636.9L391.9 641C395.8 640.2 399.8 639.8 403.9 639.8 408 639.8 412.1 640.3 416 641"/><path d="M444 657.9 444 640.9C444 639.8 443.5 638.7 442.8 638 442.5 637.7 441.8 637.3 440.9 636.9 435.4 634.3 428.9 634.3 423.3 636.8 422.3 637.2 421.5 637.7 421.1 638 420.3 638.7 419.9 639.8 419.9 640.9L419.9 642C425.2 643.4 430.1 645.6 434.3 648.4 438.5 651.1 441.7 654.4 444 657.9"/></g></svg>