<svg width="96" height="96" xmlns="http://www.w3.org/2000/svg" xmlns:xlink="http://www.w3.org/1999/xlink" overflow="hidden"><defs><clipPath id="clip0"><rect x="359" y="540" width="96" height="96"/></clipPath></defs><g clip-path="url(#clip0)" transform="translate(-359 -540)"><path d="M407 620C389.4 620 375 605.6 375 588 375 570.4 389.4 556 407 556 424.6 556 439 570.4 439 588 439 605.6 424.6 620 407 620ZM407 550C386 550 369 567 369 588 369 609 386 626 407 626 428 626 445 609 445 588 445 567 428 550 407 550Z"/><path d="M409 568 405 568 405 588C405 588.6 405.2 589.1 405.6 589.4L419.7 603.5 422.5 600.7 409 587.2 409 568Z"/><path d="M409 562C409 563.105 408.105 564 407 564 405.895 564 405 563.105 405 562 405 560.895 405.895 560 407 560 408.105 560 409 560.895 409 562Z"/><path d="M409 614C409 615.105 408.105 616 407 616 405.895 616 405 615.105 405 614 405 612.895 405.895 612 407 612 408.105 612 409 612.895 409 614Z"/><path d="M383 588C383 589.105 382.105 590 381 590 379.895 590 379 589.105 379 588 379 586.895 379.895 586 381 586 382.105 586 383 586.895 383 588Z"/><path d="M435 588C435 589.105 434.105 590 433 590 431.895 590 431 589.105 431 588 431 586.895 431.895 586 433 586 434.105 586 435 586.895 435 588Z"/></g></svg>